<?xml version="1.0" encoding="iso-8859-1"?>
<!-- Uploaded to: SVG Repo, www.svgrepo.com, Generator: SVG Repo Mixer Tools -->
<svg version="1.1" id="Layer_1" xmlns="http://www.w3.org/2000/svg" xmlns:xlink="http://www.w3.org/1999/xlink" 
	 viewBox="0 0 512 512" xml:space="preserve">
<g transform="translate(0, -100)">
<g>
	<path style="fill:#4D4D4D;" d="M94.179,215.239v32.289c0,7.016,5.688,12.703,12.703,12.703h47.733
		c7.016,0,12.703-5.688,12.703-12.703v-32.289c0-7.016-5.688-12.703-12.703-12.703h-47.733
		C99.867,202.536,94.179,208.224,94.179,215.239z"/>
</g>
<path style="fill:#F5F6F6;" d="M424.173,512H79.857c-23.204,0-42.013-18.81-42.013-42.013V268.469
	c0-23.204,18.81-42.013,42.013-42.013h344.317c23.204,0,42.013,18.81,42.013,42.013v201.518C466.186,493.19,447.377,512,424.173,512
	z"/>
<path style="fill:#E5E5E5;" d="M421.933,512H252.015c0-32.729,0-273.882,0-285.543h169.917c24.441,0,44.254,19.813,44.254,44.255
	v197.034C466.186,492.187,446.373,512,421.933,512z"/>
<rect x="37.844" y="289.013" style="fill:#7A7A7C;" width="428.344" height="160.423"/>
<rect x="252.017" y="289.013" style="fill:#6A6A6B;" width="214.172" height="160.423"/>
<circle style="fill:#4D4D4D;" cx="252.017" cy="369.23" r="103.157"/>
<path style="fill:#282828;" d="M252.014,266.073c56.971,0,103.155,46.185,103.155,103.155s-46.185,103.155-103.155,103.155
	C252.014,425.806,252.014,290.01,252.014,266.073z"/>
<circle style="fill:#FFFFFF;" cx="252.017" cy="369.23" r="80.217"/>
<path style="fill:#F5F6F6;" d="M252.014,289.016c44.3,0,80.213,35.912,80.213,80.213s-35.912,80.213-80.213,80.213
	C252.014,407.344,252.014,310.503,252.014,289.016z"/>
<circle style="fill:#C2F9FA;" cx="252.017" cy="369.23" r="56.718"/>
<path style="fill:#B4E8E8;" d="M252.014,312.509c31.324,0,56.718,25.394,56.718,56.718s-25.394,56.718-56.718,56.718
	C252.014,384.038,252.014,327.781,252.014,312.509z"/>
<rect x="117.16" y="238.113" style="fill:#D02D7F;" width="27.183" height="10.776"/>
</g>
</svg>
