<?xml version="1.0" standalone="no"?><!DOCTYPE svg PUBLIC "-//W3C//DTD SVG 1.1//EN" "http://www.w3.org/Graphics/SVG/1.1/DTD/svg11.dtd"><svg t="1770204927360" class="icon" viewBox="162 132 700 700" version="1.1" xmlns="http://www.w3.org/2000/svg" p-id="449333" width="500" height="500" xmlns:xlink="http://www.w3.org/1999/xlink"><path d="M658.285 256h73.143a36.571 36.571 0 0 1 36.571 36.571v36.572H621.714v-36.572A36.571 36.571 0 0 1 658.285 256z" fill="#972EEC" p-id="449335"></path><path d="M292.571 256h73.143a36.571 36.571 0 0 1 36.571 36.571v36.572H256v-36.572A36.571 36.571 0 0 1 292.571 256z" fill="#972EEC" p-id="449336"></path><path d="M658.287 646.102v-24.389H365.712v24.389a121.893 121.893 0 0 1-121.9 121.9A60.95 60.95 0 0 1 182.857 707.043v-249.9C182.857 356.16 264.731 274.286 365.712 274.286H658.287c100.981 0 182.856 81.874 182.856 182.855v249.9a60.95 60.95 0 0 1-60.957 60.957A121.893 121.893 0 0 1 658.287 646.102z" fill="#AD5FF2" p-id="449337"></path><path d="M274.28 502.852v-27.417H246.862a27.434 27.434 0 1 1 0-54.868h27.418v-27.418a27.434 27.434 0 1 1 54.868 0v27.418h27.418a27.434 27.434 0 1 1 0 54.868h-27.418v27.418a27.434 27.434 0 1 1-54.868 0z" fill="#F8EEFF" p-id="449338"></path><path d="M420.571 566.857m-36.571 0a36.571 36.571 0 1 0 73.142 0 36.571 36.571 0 1 0-73.142 0Z" fill="#F8EEFF" p-id="449339"></path><path d="M722.286 393.144m-27.429 0a27.429 27.429 0 1 0 54.858 0 27.429 27.429 0 1 0-54.858 0Z" fill="#F8EEFF" p-id="449340"></path><path d="M722.286 502.858m-27.429 0a27.429 27.429 0 1 0 54.858 0 27.429 27.429 0 1 0-54.858 0Z" fill="#F8EEFF" p-id="449341"></path><path d="M777.143 448.001m-27.429 0a27.429 27.429 0 1 0 54.858 0 27.429 27.429 0 1 0-54.858 0Z" fill="#F8EEFF" p-id="449342"></path><path d="M667.429 448.001m-27.429 0a27.429 27.429 0 1 0 54.858 0 27.429 27.429 0 1 0-54.858 0Z" fill="#F8EEFF" p-id="449343"></path><path d="M603.428 566.857m-36.571 0a36.571 36.571 0 1 0 73.142 0 36.571 36.571 0 1 0-73.142 0Z" fill="#F8EEFF" p-id="449344"></path></svg>