<?xml version="1.0" standalone="no"?><!DOCTYPE svg PUBLIC "-//W3C//DTD SVG 1.1//EN" "http://www.w3.org/Graphics/SVG/1.1/DTD/svg11.dtd"><svg t="1770212564693" class="icon" viewBox="0 0 1024 1024" version="1.1" xmlns="http://www.w3.org/2000/svg" p-id="17486" xmlns:xlink="http://www.w3.org/1999/xlink" width="256" height="256"><path d="M269.425778 300.088889c0 91.022222 50.289778 170.496 124.472889 212.195555A371.143111 371.143111 0 0 0 142.222222 863.175111V967.111111h740.807111v-103.936a371.086222 371.086222 0 0 0-251.676444-350.890667 243.427556 243.427556 0 0 0 124.472889-212.195555A243.484444 243.484444 0 0 0 512.625778 56.888889a243.484444 243.484444 0 0 0-243.2 243.2z m243.2-180.849778a180.963556 180.963556 0 0 0-180.849778 180.849778 180.963556 180.963556 0 0 0 180.906667 180.849778 180.963556 180.963556 0 0 0 180.792889-180.849778 181.134222 181.134222 0 0 0-180.849778-180.849778z m308.053333 785.521778v-41.528889a308.451556 308.451556 0 0 0-308.053333-308.110222 308.792889 308.792889 0 0 0-308.053334 308.280889v41.358222h616.106667z m-407.608889-154.737778a31.857778 31.857778 0 0 0 31.402667 0l68.380444-39.480889 68.380445 39.480889a31.061333 31.061333 0 1 0 46.762666-27.022222v-109.112889a31.345778 31.345778 0 0 0-46.990222-27.022222l-68.380444 39.480889-68.380445-39.480889a31.061333 31.061333 0 1 0-46.762666 27.022222v109.112889c0 11.036444 6.030222 21.447111 15.587555 27.079111z m25.770667-44.885333v-73.386667l63.601778 36.807111-63.601778 36.579556z m83.968-36.579556l-0.170667-0.227555 63.374222-36.579556v73.386667l-63.146666-36.579556z" fill="#787878" p-id="17487"></path></svg>