<?xml version="1.0" standalone="no"?><!DOCTYPE svg PUBLIC "-//W3C//DTD SVG 1.1//EN" "http://www.w3.org/Graphics/SVG/1.1/DTD/svg11.dtd"><svg t="1770211841762" class="icon" viewBox="0 0 1024 1024" version="1.1" xmlns="http://www.w3.org/2000/svg" p-id="5602" xmlns:xlink="http://www.w3.org/1999/xlink" width="256" height="256"><path d="M951.99999969 891.99999969a19.99999969 19.99999969 0 0 1-19.99999969 20.00000062H92a19.99999969 19.99999969 0 0 1 0-40.00000031h840a19.99999969 19.99999969 0 0 1 19.99999969 19.99999969zM492.00000031 192.00000031h439.99999969a19.99999969 19.99999969 0 0 0 0-40.00000031H492.00000031a19.99999969 19.99999969 0 0 0 0 40.00000031z m439.99999969 319.99999969H92a19.99999969 19.99999969 0 0 0 0 40.00000031h840a19.99999969 19.99999969 0 0 0 0-40.00000031zM103.43124969 450.425C122 464.3375 146.33124969 471.99999969 171.99999969 471.99999969s49.99999969-7.66249969 68.56875-21.57499969c19.99999969-15 31.43125031-36.25000031 31.43125031-58.425V200.06250031q3.00625031 3.35625 6.17500031 6.38749969a20.13124969 20.13124969 0 0 0 2.76874969 2.21875031 60.225 60.225 0 0 1 12.49999969 11.25c8.12500031 9.58125 14.85 22.66875 19.43750062 37.84999969a19.99999969 19.99999969 0 0 0 38.2875-11.57500031c-6.25000031-20.67499969-15.4125-38.22499969-27.225-52.14999938a100.74375 100.74375 0 0 0-19.21250062-17.60625c-8.26249969-8.25625031-15.49375031-19.37500031-20.9625-32.26875-8.46874969-19.99999969-11.07499969-40.00000031-11.76874969-53.23125A19.99999969 19.99999969 0 0 0 252.00000031 72.00000031h-0.53125031A19.99999969 19.99999969 0 0 0 231.99999969 92v235.8375C214.8125 317.57499969 193.87500031 312.00000031 171.99999969 312.00000031c-25.66875 0-49.99999969 7.66249969-68.56875 21.57499969-19.99999969 15-31.43125031 36.25000031-31.43124938 58.425s11.45625 43.44375 31.43124938 58.425z" fill="#2c2c2c" p-id="5603"></path></svg>