<?xml version="1.0" standalone="no"?><!DOCTYPE svg PUBLIC "-//W3C//DTD SVG 1.1//EN" "http://www.w3.org/Graphics/SVG/1.1/DTD/svg11.dtd"><svg t="1772870326055" class="icon" viewBox="0 0 1024 1024" version="1.1" xmlns="http://www.w3.org/2000/svg" p-id="23021" xmlns:xlink="http://www.w3.org/1999/xlink" width="500" height="500"><path d="M102.4 102.4v819.2h819.2V102.4H102.4z m452.608 51.2l16.384 102.4h-102.4l-16.384-102.4h102.4zM173.568 256l-16.384-102.4h102.4l16.384 102.4h-102.4z m131.072-102.4h102.4l16.384 102.4h-102.4l-16.384-102.4z m332.8 432.128l-206.848 119.296c-15.36 9.216-34.816-2.048-34.816-20.48V445.44c0-17.92 19.456-29.184 34.816-20.48l206.848 119.296c15.36 9.216 15.36 31.232 0 40.448zM616.96 256l-16.384-102.4h102.4l16.384 102.4h-102.4z m147.968 0l-16.384-102.4h102.4l16.384 102.4h-102.4z" fill="#677BA5" p-id="23022"></path></svg>