<?xml version="1.0" standalone="no"?><!DOCTYPE svg PUBLIC "-//W3C//DTD SVG 1.1//EN" "http://www.w3.org/Graphics/SVG/1.1/DTD/svg11.dtd"><svg t="1770285175091" class="icon" viewBox="0 0 1024 1024" version="1.1" xmlns="http://www.w3.org/2000/svg" p-id="13305" xmlns:xlink="http://www.w3.org/1999/xlink" width="500" height="500"><path d="M162.112 128v119.488H128a51.2 51.2 0 1 0 0 102.4h34.112V460.8H128a51.2 51.2 0 0 0 0 102.4h34.112v110.912H128a51.2 51.2 0 0 0 0 102.4h34.112V896q0 38.912 27.52 66.368 27.456 27.52 66.304 27.52h597.376q38.848 0 66.368-27.52 27.52-27.52 27.52-66.368V128q0-38.912-27.52-66.368-27.52-27.52-66.368-27.52H255.936q-38.848 0-66.368 27.52-27.52 27.52-27.52 66.368z m614.4 759.488V136.512H844.8v750.976h-68.288zM576 136.512h98.112v750.976h-409.6v-110.976h34.112a51.2 51.2 0 0 0 0-102.4h-34.112V563.2h34.112a51.2 51.2 0 1 0 0-102.4h-34.112V349.888h34.112a51.2 51.2 0 1 0 0-102.4h-34.112V136.512H576z" p-id="13306" fill="#000000"></path></svg>