<?xml version="1.0" standalone="no"?><!DOCTYPE svg PUBLIC "-//W3C//DTD SVG 1.1//EN" "http://www.w3.org/Graphics/SVG/1.1/DTD/svg11.dtd"><svg t="1775631212865" class="icon" viewBox="0 0 1035 1024" version="1.1" xmlns="http://www.w3.org/2000/svg" p-id="7388" xmlns:xlink="http://www.w3.org/1999/xlink" width="202.1484375" height="200"><path d="M959.2 213.6c-0.8-1.6-12.8-9.6-20-12.8-8.8-4-17.6-6.4-25.6-6.4-25.6 0-39.2 18.4-40.8 20.8l-33.6 48.8-230.4 367.2c-0.8 1.6-1.6 4-2.4 5.6l-0.8 0.8L560 763.2c-1.6 7.2 1.6 15.2 8 19.2s14.4 4 20.8 0l96.8-88.8c1.6-0.8 1.6-2.4 3.2-3.2l2.4-2.4 242.4-366.4c8-12 27.2-40 33.6-51.2 14.4-24-2.4-52-8-56.8zM273.6 339.2h376c20 0 36-16 36-36s-16-36-36-36h-376c-20 0-36 16-36 36s16 36 36 36z" fill="#333333" p-id="7389"></path><path d="M749.6 740v129.6H163.2V156.8h586.4v32.8h72v-35.2c0-38.4-31.2-69.6-69.6-69.6H160c-38.4 0-69.6 31.2-69.6 69.6V872c0 38.4 31.2 69.6 69.6 69.6h592c38.4 0 69.6-31.2 69.6-69.6V740h-72z" fill="#333333" p-id="7390"></path><path d="M521.6 456h-248c-20 0-36 16-36 36s16 36 36 36h248c20 0 36-16 36-36s-16-36-36-36zM273.6 716.8h112c20 0 36-16 36-36s-16-36-36-36h-112c-20 0-36 16-36 36s16 36 36 36z" fill="#333333" p-id="7391"></path></svg>