<?xml version="1.0" standalone="no"?><!DOCTYPE svg PUBLIC "-//W3C//DTD SVG 1.1//EN" "http://www.w3.org/Graphics/SVG/1.1/DTD/svg11.dtd"><svg t="1770208971162" class="icon" viewBox="0 0 1024 1024" version="1.1" xmlns="http://www.w3.org/2000/svg" p-id="22880" width="256" height="256" xmlns:xlink="http://www.w3.org/1999/xlink"><path d="M512 512m-271.058824 0a271.058824 271.058824 0 1 0 542.117648 0 271.058824 271.058824 0 1 0-542.117648 0Z" fill="#FFD922" p-id="22881"></path><path d="M572.235294 180.705882h-120.470588V0h120.470588zM572.235294 1024h-120.470588v-180.705882h120.470588zM843.294118 572.235294v-120.470588h180.705882v120.470588zM0 572.235294v-120.470588h180.705882v120.470588zM703.668706 788.841412l85.172706-85.172706 127.819294 127.759059-85.232941 85.232941zM107.339294 192.572235l85.232941-85.232941 127.759059 127.819294-85.172706 85.172706zM788.841412 320.331294l-85.172706-85.172706 127.759059-127.819294 85.232941 85.232941zM192.572235 916.660706l-85.232941-85.232941 127.819294-127.759059 85.172706 85.172706z" fill="#F1CD20" p-id="22882"></path></svg>